<svg width="270" height="140" viewBox="0 0 270 140" fill="none" xmlns="http://www.w3.org/2000/svg">
<g clip-path="url(#clip0)">
<rect width="270" height="140" rx="10" fill="#DF8E14"/>
<path d="M101.72 52.12V50.68H122.816V52.12H119.288L129.152 74.368L133.76 62.92L128.936 52.12H126.2V50.68H145.928V52.12H142.544L152.192 74.08L159.824 52.12H154.064V50.68H166.448V52.12H161.552L148.088 91H146.36L146.648 90.208L146.288 91L134.696 64.936L124.256 91H122.528L105.176 52.12H101.72Z" fill="#FEEBCE"/>
<path d="M27.96 108.956C25.824 108.956 24.396 109.316 23.676 110.036C22.932 110.732 22.56 112.052 22.56 113.996V115.076H41.28V112.556H42V122.996H41.28V120.476H22.56V121.556C22.56 123.476 22.932 124.796 23.676 125.516C24.396 126.212 25.824 126.56 27.96 126.56V127.28H21.84V108.236H27.96V108.956ZM42 97.0639V106.064H41.28V104.264H22.56V106.064H21.84V97.0639H22.56V98.8639H41.28V97.0639H42ZM29.868 76.7211V77.4411C27.948 77.4411 26.172 78.0531 24.54 79.2771C22.908 80.5011 22.092 82.2531 22.092 84.5331C22.092 85.8051 22.836 86.8611 24.324 87.7011C25.812 88.5171 28.356 88.9251 31.956 88.9251C35.556 88.9251 38.1 88.5171 39.588 87.7011C41.076 86.8611 41.82 85.5651 41.82 83.8131C41.82 82.0371 41.268 80.5491 40.164 79.3491C39.06 78.1251 37.5 77.3691 35.484 77.0811V76.3611C37.86 76.6971 39.636 77.5371 40.812 78.8811C41.964 80.2011 42.54 81.7851 42.54 83.6331C42.54 87.2091 41.688 89.9571 39.984 91.8771C38.256 93.7731 35.568 94.7211 31.92 94.7211C28.248 94.7211 25.572 93.7971 23.892 91.9491C22.212 90.0771 21.372 87.6051 21.372 84.5331C21.372 82.8771 21.816 81.2691 22.704 79.7091C23.016 79.2051 23.172 78.7971 23.172 78.4851C23.172 78.1491 23.028 77.8851 22.74 77.6931C22.428 77.5011 22.128 77.4051 21.84 77.4051V76.7211H29.868ZM41.28 52.7966H42V62.1566H41.28V60.5366L32.532 65.3246L34.44 66.8366H41.28V65.0366H42L42 74.0366H41.28V72.2366H22.56V74.0366H21.84V65.0366H22.56V66.8366H33.18L22.56 58.4846V61.7966H21.84L21.84 54.4526H22.56V57.5126L27.96 61.7606L41.28 54.3446V52.7966ZM41.28 40.2092C41.28 36.6092 39.24 34.8092 35.16 34.8092V34.0892H42V51.0092H41.28V49.2092H22.56V51.0092H21.84V34.4492H27.96V35.1692C25.824 35.1692 24.396 35.6012 23.676 36.4652C22.932 37.3052 22.56 38.6732 22.56 40.5692L22.56 43.8092H31.2V42.3692C31.2 40.6412 30.984 39.5492 30.552 39.0932C30.12 38.6372 29.256 38.4092 27.96 38.4092V37.6892H35.16V38.4092C33.816 38.4092 32.94 38.6372 32.532 39.0932C32.124 39.5492 31.92 40.6412 31.92 42.3692V43.8092H41.28V40.2092ZM27.96 13.788C25.824 13.788 24.396 14.148 23.676 14.868C22.932 15.564 22.56 16.884 22.56 18.828V19.908H41.28V17.388H42V27.828H41.28V25.308H22.56V26.388C22.56 28.308 22.932 29.628 23.676 30.348C24.396 31.044 25.824 31.392 27.96 31.392V32.112H21.84V13.068H27.96V13.788Z" fill="#FEEBCE"/>
<path d="M241.04 31.044C243.176 31.044 244.604 30.684 245.324 29.964C246.068 29.268 246.44 27.948 246.44 26.004V24.924H227.72V27.444H227V17.004H227.72V19.524H246.44V18.444C246.44 16.524 246.068 15.204 245.324 14.484C244.604 13.788 243.176 13.44 241.04 13.44V12.72H247.16V31.764H241.04V31.044ZM227 42.9361V33.9361H227.72V35.7361H246.44V33.9361H247.16V42.9361H246.44V41.1361H227.72V42.9361H227ZM239.132 63.2789V62.5589C241.052 62.5589 242.828 61.9469 244.46 60.7229C246.092 59.4989 246.908 57.7469 246.908 55.4669C246.908 54.1949 246.164 53.1389 244.676 52.2989C243.188 51.4829 240.644 51.0749 237.044 51.0749C233.444 51.0749 230.9 51.4829 229.412 52.2989C227.924 53.1389 227.18 54.4349 227.18 56.1869C227.18 57.9629 227.732 59.4509 228.836 60.6509C229.94 61.8749 231.5 62.6309 233.516 62.9189V63.6389C231.14 63.3029 229.364 62.4629 228.188 61.1189C227.036 59.7989 226.46 58.2149 226.46 56.3669C226.46 52.7909 227.312 50.0429 229.016 48.1229C230.744 46.2269 233.432 45.2789 237.08 45.2789C240.752 45.2789 243.428 46.2029 245.108 48.0509C246.788 49.9229 247.628 52.3949 247.628 55.4669C247.628 57.1229 247.184 58.7309 246.296 60.2909C245.984 60.7949 245.828 61.2029 245.828 61.5149C245.828 61.8509 245.972 62.1149 246.26 62.3069C246.572 62.4989 246.872 62.5949 247.16 62.5949V63.2789H239.132ZM227.72 87.2034H227V77.8434H227.72V79.4634L236.468 74.6754L234.56 73.1634H227.72V74.9634H227V65.9634H227.72V67.7634H246.44V65.9634H247.16V74.9634H246.44V73.1634H235.82L246.44 81.5154V78.2034H247.16V85.5474H246.44V82.4874L241.04 78.2394L227.72 85.6554V87.2034ZM227.72 99.7908C227.72 103.391 229.76 105.191 233.84 105.191V105.911H227V88.9908H227.72V90.7908H246.44V88.9908H247.16V105.551H241.04V104.831C243.176 104.831 244.604 104.399 245.324 103.535C246.068 102.695 246.44 101.327 246.44 99.4308V96.1908H237.8V97.6308C237.8 99.3588 238.016 100.451 238.448 100.907C238.88 101.363 239.744 101.591 241.04 101.591V102.311H233.84V101.591C235.184 101.591 236.06 101.363 236.468 100.907C236.876 100.451 237.08 99.3588 237.08 97.6308V96.1908H227.72V99.7908ZM241.04 126.212C243.176 126.212 244.604 125.852 245.324 125.132C246.068 124.436 246.44 123.116 246.44 121.172V120.092H227.72V122.612H227V112.172H227.72V114.692H246.44V113.612C246.44 111.692 246.068 110.372 245.324 109.652C244.604 108.956 243.176 108.608 241.04 108.608V107.888H247.16V126.932H241.04V126.212Z" fill="#FEEBCE"/>
</g>
<defs>
<clipPath id="clip0">
<rect width="270" height="140" fill="white"/>
</clipPath>
</defs>
</svg>
