<svg width="300" height="300" viewBox="0 0 300 300" fill="none" xmlns="http://www.w3.org/2000/svg">
<rect x="15" y="80" width="270" height="140" rx="10" fill="#712B15"/>
<path d="M116.72 132.12V130.68H137.816V132.12H134.288L144.152 154.368L148.76 142.92L143.936 132.12H141.2V130.68H160.928V132.12H157.544L167.192 154.08L174.824 132.12H169.064V130.68H181.448V132.12H176.552L163.088 171H161.36L161.648 170.208L161.288 171L149.696 144.936L139.256 171H137.528L120.176 132.12H116.72Z" fill="#FF9900"/>
<path d="M42.96 188.956C40.824 188.956 39.396 189.316 38.676 190.036C37.932 190.732 37.56 192.052 37.56 193.996V195.076H56.28V192.556H57V202.996H56.28V200.476H37.56V201.556C37.56 203.476 37.932 204.796 38.676 205.516C39.396 206.212 40.824 206.56 42.96 206.56V207.28H36.84V188.236H42.96V188.956ZM57 177.064V186.064H56.28V184.264H37.56V186.064H36.84V177.064H37.56V178.864H56.28V177.064H57ZM44.868 156.721V157.441C42.948 157.441 41.172 158.053 39.54 159.277C37.908 160.501 37.092 162.253 37.092 164.533C37.092 165.805 37.836 166.861 39.324 167.701C40.812 168.517 43.356 168.925 46.956 168.925C50.556 168.925 53.1 168.517 54.588 167.701C56.076 166.861 56.82 165.565 56.82 163.813C56.82 162.037 56.268 160.549 55.164 159.349C54.06 158.125 52.5 157.369 50.484 157.081V156.361C52.86 156.697 54.636 157.537 55.812 158.881C56.964 160.201 57.54 161.785 57.54 163.633C57.54 167.209 56.688 169.957 54.984 171.877C53.256 173.773 50.568 174.721 46.92 174.721C43.248 174.721 40.572 173.797 38.892 171.949C37.212 170.077 36.372 167.605 36.372 164.533C36.372 162.877 36.816 161.269 37.704 159.709C38.016 159.205 38.172 158.797 38.172 158.485C38.172 158.149 38.028 157.885 37.74 157.693C37.428 157.501 37.128 157.405 36.84 157.405V156.721H44.868ZM56.28 132.797H57V142.157H56.28V140.537L47.532 145.325L49.44 146.837H56.28V145.037H57L57 154.037H56.28V152.237H37.56V154.037H36.84V145.037H37.56V146.837H48.18L37.56 138.485V141.797H36.84L36.84 134.453H37.56V137.513L42.96 141.761L56.28 134.345V132.797ZM56.28 120.209C56.28 116.609 54.24 114.809 50.16 114.809V114.089H57V131.009H56.28V129.209H37.56V131.009H36.84V114.449H42.96V115.169C40.824 115.169 39.396 115.601 38.676 116.465C37.932 117.305 37.56 118.673 37.56 120.569L37.56 123.809H46.2V122.369C46.2 120.641 45.984 119.549 45.552 119.093C45.12 118.637 44.256 118.409 42.96 118.409V117.689H50.16V118.409C48.816 118.409 47.94 118.637 47.532 119.093C47.124 119.549 46.92 120.641 46.92 122.369V123.809H56.28V120.209ZM42.96 93.788C40.824 93.788 39.396 94.148 38.676 94.868C37.932 95.564 37.56 96.884 37.56 98.828V99.908H56.28V97.388H57V107.828H56.28V105.308H37.56V106.388C37.56 108.308 37.932 109.628 38.676 110.348C39.396 111.044 40.824 111.392 42.96 111.392V112.112H36.84V93.068H42.96V93.788Z" fill="#FF9900"/>
<path d="M256.04 111.044C258.176 111.044 259.604 110.684 260.324 109.964C261.068 109.268 261.44 107.948 261.44 106.004V104.924H242.72V107.444H242V97.004H242.72V99.524H261.44V98.444C261.44 96.524 261.068 95.204 260.324 94.484C259.604 93.788 258.176 93.44 256.04 93.44V92.72H262.16V111.764H256.04V111.044ZM242 122.936V113.936H242.72V115.736H261.44V113.936H262.16V122.936H261.44V121.136H242.72V122.936H242ZM254.132 143.279V142.559C256.052 142.559 257.828 141.947 259.46 140.723C261.092 139.499 261.908 137.747 261.908 135.467C261.908 134.195 261.164 133.139 259.676 132.299C258.188 131.483 255.644 131.075 252.044 131.075C248.444 131.075 245.9 131.483 244.412 132.299C242.924 133.139 242.18 134.435 242.18 136.187C242.18 137.963 242.732 139.451 243.836 140.651C244.94 141.875 246.5 142.631 248.516 142.919V143.639C246.14 143.303 244.364 142.463 243.188 141.119C242.036 139.799 241.46 138.215 241.46 136.367C241.46 132.791 242.312 130.043 244.016 128.123C245.744 126.227 248.432 125.279 252.08 125.279C255.752 125.279 258.428 126.203 260.108 128.051C261.788 129.923 262.628 132.395 262.628 135.467C262.628 137.123 262.184 138.731 261.296 140.291C260.984 140.795 260.828 141.203 260.828 141.515C260.828 141.851 260.972 142.115 261.26 142.307C261.572 142.499 261.872 142.595 262.16 142.595V143.279H254.132ZM242.72 167.203H242V157.843H242.72V159.463L251.468 154.675L249.56 153.163H242.72V154.963H242V145.963H242.72V147.763H261.44V145.963H262.16V154.963H261.44V153.163H250.82L261.44 161.515V158.203H262.16V165.547H261.44V162.487L256.04 158.239L242.72 165.655V167.203ZM242.72 179.791C242.72 183.391 244.76 185.191 248.84 185.191V185.911H242V168.991H242.72V170.791H261.44V168.991H262.16V185.551H256.04V184.831C258.176 184.831 259.604 184.399 260.324 183.535C261.068 182.695 261.44 181.327 261.44 179.431V176.191H252.8V177.631C252.8 179.359 253.016 180.451 253.448 180.907C253.88 181.363 254.744 181.591 256.04 181.591V182.311H248.84V181.591C250.184 181.591 251.06 181.363 251.468 180.907C251.876 180.451 252.08 179.359 252.08 177.631V176.191H242.72V179.791ZM256.04 206.212C258.176 206.212 259.604 205.852 260.324 205.132C261.068 204.436 261.44 203.116 261.44 201.172V200.092H242.72V202.612H242V192.172H242.72V194.692H261.44V193.612C261.44 191.692 261.068 190.372 260.324 189.652C259.604 188.956 258.176 188.608 256.04 188.608V187.888H262.16V206.932H256.04V206.212Z" fill="#FF9900"/>
</svg>
